<svg width="819" height="236" viewBox="0 0 819 236" fill="none" xmlns="http://www.w3.org/2000/svg">
<circle cx="700.852" cy="118" r="45.9367" transform="rotate(90 700.852 118)" stroke="url(#paint0_linear_2104_3345)" stroke-opacity="0.18" stroke-width="0.285882"/>
<circle cx="700.852" cy="118" r="68.9766" transform="rotate(90 700.852 118)" stroke="url(#paint1_linear_2104_3345)" stroke-opacity="0.84" stroke-width="0.285882"/>
<circle cx="700.852" cy="118" r="93.7105" transform="rotate(90 700.852 118)" stroke="url(#paint2_linear_2104_3345)" stroke-opacity="0.84" stroke-width="0.285882"/>
<circle cx="700.852" cy="118" r="117.767" transform="rotate(90 700.852 118)" stroke="url(#paint3_linear_2104_3345)" stroke-opacity="0.84" stroke-width="0.285882"/>
<circle cx="733.559" cy="57" r="2.02755" transform="rotate(90 733.559 57)" fill="url(#paint4_linear_2104_3345)"/>
<circle r="45.9367" transform="matrix(4.37114e-08 1 1 -4.37114e-08 118.487 118)" stroke="url(#paint5_linear_2104_3345)" stroke-opacity="0.18" stroke-width="0.285882"/>
<circle r="68.9766" transform="matrix(4.37114e-08 1 1 -4.37114e-08 118.487 118)" stroke="url(#paint6_linear_2104_3345)" stroke-opacity="0.84" stroke-width="0.285882"/>
<circle r="93.7105" transform="matrix(4.37114e-08 1 1 -4.37114e-08 118.487 118)" stroke="url(#paint7_linear_2104_3345)" stroke-opacity="0.84" stroke-width="0.285882"/>
<circle r="117.767" transform="matrix(4.37114e-08 1 1 -4.37114e-08 118.487 118)" stroke="url(#paint8_linear_2104_3345)" stroke-opacity="0.84" stroke-width="0.285882"/>
<circle r="2.02755" transform="matrix(4.37114e-08 1 1 -4.37114e-08 44.7102 177)" fill="url(#paint9_linear_2104_3345)"/>
<defs>
<linearGradient id="paint0_linear_2104_3345" x1="700.852" y1="71.9203" x2="700.852" y2="164.08" gradientUnits="userSpaceOnUse">
<stop stop-color="white"/>
<stop offset="0.708333" stop-color="white" stop-opacity="0"/>
</linearGradient>
<linearGradient id="paint1_linear_2104_3345" x1="700.852" y1="48.8804" x2="700.852" y2="187.119" gradientUnits="userSpaceOnUse">
<stop stop-color="#95A6F7"/>
<stop offset="0.708333" stop-color="white" stop-opacity="0"/>
</linearGradient>
<linearGradient id="paint2_linear_2104_3345" x1="700.852" y1="24.1462" x2="700.852" y2="211.853" gradientUnits="userSpaceOnUse">
<stop stop-color="#95A6F7"/>
<stop offset="0.708333" stop-color="white" stop-opacity="0"/>
</linearGradient>
<linearGradient id="paint3_linear_2104_3345" x1="700.852" y1="0.0901413" x2="700.852" y2="235.91" gradientUnits="userSpaceOnUse">
<stop stop-color="#95A6F7"/>
<stop offset="0.708333" stop-color="white" stop-opacity="0"/>
</linearGradient>
<linearGradient id="paint4_linear_2104_3345" x1="734.634" y1="58.0445" x2="730.518" y2="52.4533" gradientUnits="userSpaceOnUse">
<stop stop-color="#E06B2F"/>
<stop offset="1" stop-color="#E06B2F"/>
</linearGradient>
<linearGradient id="paint5_linear_2104_3345" x1="46.0797" y1="0" x2="46.0797" y2="92.1593" gradientUnits="userSpaceOnUse">
<stop stop-color="white"/>
<stop offset="0.708333" stop-color="white" stop-opacity="0"/>
</linearGradient>
<linearGradient id="paint6_linear_2104_3345" x1="69.1195" y1="0" x2="69.1195" y2="138.239" gradientUnits="userSpaceOnUse">
<stop stop-color="#95A6F7"/>
<stop offset="0.708333" stop-color="white" stop-opacity="0"/>
</linearGradient>
<linearGradient id="paint7_linear_2104_3345" x1="93.8535" y1="0" x2="93.8535" y2="187.707" gradientUnits="userSpaceOnUse">
<stop stop-color="#95A6F7"/>
<stop offset="0.708333" stop-color="white" stop-opacity="0"/>
</linearGradient>
<linearGradient id="paint8_linear_2104_3345" x1="117.91" y1="0" x2="117.91" y2="235.82" gradientUnits="userSpaceOnUse">
<stop stop-color="#95A6F7"/>
<stop offset="0.708333" stop-color="white" stop-opacity="0"/>
</linearGradient>
<linearGradient id="paint9_linear_2104_3345" x1="3.10276" y1="3.07204" x2="-1.01377" y2="-2.51908" gradientUnits="userSpaceOnUse">
<stop stop-color="#E06B2F"/>
<stop offset="1" stop-color="#E06B2F"/>
</linearGradient>
</defs>
</svg>
