<?xml version="1.0" encoding="UTF-8"?><svg id="a" xmlns="http://www.w3.org/2000/svg" viewBox="0 0 208.18 83.68"><defs><style>.b{fill:#005cb9;}.c{fill:#ea0029;}</style></defs><g><g><path class="b" d="M118.12,59.78c.58,8.48,8.09,13.2,15.32,13.1,6.17,0,10.31-2.79,12.72-7.13h13.01c-2.51,5.88-6.26,10.31-10.69,13.3-4.43,3.08-9.63,4.62-15.13,4.62-16.28,0-27.94-13.2-27.94-27.94s11.75-28.23,27.75-28.23c7.9,0,14.84,2.99,19.75,8.09,6.46,6.65,8.86,14.93,7.8,24.18h-42.58Zm30.16-9.63c-.48-5.01-5.78-12.04-15.03-11.95-9.35,0-14.45,6.74-14.93,11.95h29.96Z"/><path class="b" d="M170.57,29.15h11.95v6.94c2.31-4.72,6.65-8.48,14.64-8.57v12.72h-.58c-8.86,0-13.39,4.14-13.39,13.3v30.16h-12.62V29.15Z"/></g><g><path class="c" d="M106.25,27.21h-37.63c-1.86,0-3.5,.98-4.43,2.45l-3.73,5.09c-.26,.36,0,.86,.43,.86l31.87,.16c.36,0,.71-.09,1.02-.26l12.75-7.03c.31-.14,.48-.51,.32-.89-.1-.23-.35-.36-.6-.36Z"/><path class="c" d="M52.6,56.22c-4.82,0-17.33,8.44-17.33,8.44-.3,.15-.66,.2-1.03,.12-.55-.13-.99-.57-1.12-1.12-.08-.38-.03-.73,.12-1.04,0,0,5.69-11.22,5.98-11.79,.29-.57,.39-1,.39-1,.07-.24,.11-.49,.11-.75,0-.54-.16-1.04-.45-1.46,0,0-.25-.38-.77-.94-.46-.49-9.36-9.57-9.99-10.24,0,0-.97-.87-.28-1.83,.27-.38,.73-.58,1.2-.58h14.18c2.38,0,4.63-1.11,5.9-2.63l.74-.95c.56-.71,4.56-6.34,5.09-7.16,2.23-3.5,5.33-7.38,6.56-11.89,.7-2.55-1.92-8.79-2.19-9.77-.34-1.25-1.39-1.64-1.93-1.64-.48,0-1.48,.1-2.32,1.5-.5,.84-15.09,23.36-15.09,23.36-.94,1.39-2.53,2.3-4.33,2.3,0,0-32.02,0-32.9,0-2.06,0-3.13,1-3.13,2.22v.05c0,.12,.01,.19,.03,.29,.12,.66,.44,1.33,1.12,2.08,6.55,7.21,19.62,20.15,20.21,20.86l.58,.7c.38,.45,.61,1.04,.61,1.67,0,.94-.55,1.88-.55,1.88-3.13,6.51-11.64,23.03-11.99,23.8-.13,.27-.39,.91-.38,1.23v.14c0,.83,.67,1.5,1.5,1.5h.22c.25,0,.71-.1,1.11-.28,.25-.11,20.95-10.19,26.73-13,2.67-1.3,3.52-1.33,5.47-.31,1.53,.8,18.06,9.98,22.36,12.39,1.02,.57,1.93,1.21,2.92,1.21h.03c1.08,0,1.96-.88,1.96-1.96v-.5c0-.15-1.03-14.79-1.09-15.45,0,0,.04-.48-.05-.61-2.85-4.18-13.14-8.85-18.2-8.85Z"/><path class="b" d="M58.21,40.99l23.56-.03c1.48,0,2,1.83,.7,2.51l-11.29,5.89c-.21,.11-.46,.17-.7,.17h-14.76c-.31,0-.61-.09-.86-.27-.67-.47-1.79-1.52-1.15-3.01,.71-1.66,2.35-3.79,2.94-4.55,.14-.18,.33-.32,.55-.42l.41-.18c.19-.08,.4-.12,.6-.12Z"/></g></g><g><path class="b" d="M205.55,27.72c-1.45,0-2.63,1.18-2.63,2.63s1.18,2.63,2.63,2.63,2.63-1.18,2.63-2.63-1.18-2.63-2.63-2.63Zm0,4.73c-1.16,0-2.1-.94-2.1-2.11s.94-2.1,2.1-2.1,2.1,.94,2.1,2.1-.94,2.11-2.1,2.11Z"/><path class="b" d="M206.69,29.69c0-.6-.36-.87-1.07-.87h-1.16v3.06h.46v-1.33h.53l.8,1.33h.51l-.86-1.35c.45-.06,.79-.29,.79-.84Zm-1.77,.47v-.95h.63c.32,0,.66,.07,.66,.45,0,.47-.35,.5-.74,.5h-.55Z"/></g></svg>